<svg width="41" height="48" viewBox="10 0 41 48" fill="none" xmlns="http://www.w3.org/2000/svg">
<path d="M41.2278 33.777C41.2278 33.777 37.4243 35.4985 30.0481 35.4985C24.1384 35.4985 19.5752 33.777 19.5752 33.777C19.5752 33.777 23.8307 36.566 30.1779 36.4409C38.8764 36.2774 41.2278 33.777 41.2278 33.777Z" fill="black"/>
<path d="M24.7301 17.0723C26.9468 16.3126 29.2501 16.1828 31.0533 16.1347C36.2849 15.9952 40.6462 19.2746 41.3867 20.2652C42.3339 21.525 43.1898 24.4245 43.3678 26.9201C43.6226 30.5457 42.911 33.7818 42.911 33.7818C42.911 33.7818 44.5362 30.7957 44.0698 25.4776C43.7044 21.3134 41.2232 18.9428 41.2232 18.9428C41.2232 18.9428 36.9725 14.7402 31.0004 14.7402C22.9077 14.7402 18.8638 19.8709 18.8638 19.8709C18.8638 19.8709 17.0173 22.1934 16.7769 25.718C16.4259 30.8294 17.9742 33.7818 17.9742 33.7818C17.4885 30.6515 16.6374 25.9007 19.4744 20.3565C19.8591 19.6112 22.3547 17.885 24.7301 17.0723Z" fill="black"/>
<path d="M50.9077 24.1504C50.5807 21.1884 47.7485 20.7845 47.5321 20.7605C47.0128 19.3083 46.3588 17.909 45.7097 16.9089C45.0317 15.8606 43.9258 14.3508 42.5698 13.038C41.3292 11.8407 39.853 10.8261 38.8913 10.2107C37.0112 9.00373 32.7172 7.86412 29.9812 8.01318C26.5671 8.20552 22.6098 8.95083 17.7676 13.567C16.1039 15.1538 14.4931 17.7648 13.416 20.7556C13.1226 20.7941 10.3722 21.2317 10.05 24.1456C9.64131 27.8626 11.8484 28.3482 12.2042 28.4011C12.2283 29.2907 12.31 30.1899 12.4735 31.0169C12.887 33.1182 14.0026 36.3111 15.0076 38.0469C15.2288 38.4268 15.926 39.7732 16.3251 39.9607C16.5319 40.0569 26.8316 39.9463 26.8316 39.9463L16.7771 38.6528C16.7771 38.6528 15.5605 36.8833 14.5844 34.6473C13.6997 32.6278 13.2236 30.1466 13.0746 28.8098C12.8534 26.8239 12.9111 24.915 13.4785 22.5925C14.0363 20.3036 15.2865 17.9283 15.7433 17.3368C17.1522 15.5096 19.5516 13.9997 20.9172 13.3891C24.8842 11.6243 28.3559 11.2829 30.9044 11.3262C37.9536 11.4416 43.1901 14.6008 45.2048 17.3609C46.1328 18.6351 47.3302 21.5154 47.7148 23.8042C48.1284 26.2565 47.9937 28.4252 47.6379 30.3197C47.4696 31.2285 47.0993 32.974 46.4021 34.5752C45.4597 36.7342 44.1566 38.7153 44.1566 38.7153L34.0876 39.9463H43.6901C43.6901 39.9463 44.6134 39.9655 44.6614 39.9463C44.8826 39.8549 46.0607 37.9027 46.0607 37.9027C46.0607 37.9027 47.2821 35.3157 47.6619 34.2338C48.3976 32.1421 48.6861 30.2764 48.7246 28.4107C48.965 28.3819 51.3308 27.9876 50.9077 24.1504ZM12.6514 23.3378C12.3966 24.4341 12.1561 26.3912 12.2042 28.3819C11.9494 28.2136 10.8098 27.3 11.0021 24.7371C11.257 21.3904 13.1659 20.823 13.4112 20.7653C13.113 21.5971 12.8534 22.4626 12.6514 23.3378ZM48.7246 28.4011C48.7487 27.2038 48.6669 26.0113 48.5323 24.7611C48.4072 23.5926 48.0322 22.1549 47.5321 20.7605C47.7196 20.8037 49.6959 21.3279 49.9556 24.7371C50.1575 27.4202 48.8977 28.2953 48.7246 28.4011Z" fill="black"/>
</svg>
